<svg width="77" height="65" viewBox="0 0 77 65" fill="none" xmlns="http://www.w3.org/2000/svg">
<path d="M46.284 1.498C51.432 6.17799 55.41 11.404 58.218 17.176C61.026 22.948 62.43 28.252 62.43 33.088C61.182 32.464 59.466 32.152 57.282 32.152C53.07 32.152 49.56 33.634 46.752 36.598C43.944 39.562 42.54 43.306 42.54 47.83C42.54 52.822 44.178 56.878 47.454 59.998C50.574 63.118 54.552 64.678 59.388 64.678C64.692 64.678 68.904 63.04 72.024 59.764C74.988 56.488 76.47 52.354 76.47 47.362C76.47 37.534 74.676 28.642 71.088 20.686C67.344 12.73 62.43 6.48999 56.346 1.96599C55.098 0.873997 53.226 0.327999 50.73 0.327999C48.702 0.327999 47.22 0.717999 46.284 1.498ZM4.398 1.498C9.546 6.17799 13.524 11.404 16.332 17.176C19.14 22.948 20.544 28.252 20.544 33.088C19.296 32.464 17.58 32.152 15.396 32.152C11.184 32.152 7.674 33.634 4.866 36.598C2.058 39.562 0.653996 43.306 0.653996 47.83C0.653996 52.822 2.292 56.878 5.568 59.998C8.688 63.118 12.666 64.678 17.502 64.678C22.806 64.678 27.018 63.04 30.138 59.764C33.102 56.488 34.584 52.354 34.584 47.362C34.584 37.534 32.79 28.642 29.202 20.686C25.458 12.73 20.544 6.48999 14.46 1.96599C13.212 0.873997 11.34 0.327999 8.844 0.327999C6.816 0.327999 5.334 0.717999 4.398 1.498Z" fill="black" fill-opacity="0.25"/>
</svg>
